<?xml version="1.0" standalone="no"?>
<!DOCTYPE svg PUBLIC "-//W3C//DTD SVG 20010904//EN"
 "http://www.w3.org/TR/2001/REC-SVG-20010904/DTD/svg10.dtd">
<svg version="1.0" xmlns="http://www.w3.org/2000/svg"
 width="1800.000000pt" height="1800.000000pt" viewBox="0 0 1800.000000 1800.000000"
 preserveAspectRatio="xMidYMid meet">
<g transform="translate(0.000000,1800.000000) scale(0.100000,-0.100000)"
fill="#000000" stroke="none">
<path d="M11150 13170 c-304 -55 -518 -130 -725 -254 -194 -116 -296 -198
-460 -367 -143 -149 -261 -319 -344 -494 -18 -38 -37 -78 -43 -89 -16 -30 -68
-177 -78 -221 -5 -22 -18 -74 -30 -115 -26 -96 -60 -360 -60 -470 0 -127 41
-422 72 -515 6 -16 14 -46 18 -65 15 -64 38 -115 53 -118 13 -3 62 22 232 118
46 26 190 109 220 127 11 7 27 15 35 19 8 4 47 27 86 50 39 24 74 44 78 44 4
0 19 8 34 19 24 17 225 134 327 191 22 12 77 44 123 71 45 27 84 49 86 49 3 0
37 19 78 43 40 24 80 46 88 50 8 4 33 18 55 31 109 63 302 173 315 180 8 4 24
12 35 19 117 70 135 78 135 59 0 -8 -71 -63 -112 -87 -23 -13 -230 -154 -298
-202 -85 -60 -354 -245 -554 -381 -60 -40 -199 -120 -310 -176 -240 -124 -399
-206 -521 -271 -49 -26 -196 -102 -325 -167 -129 -66 -242 -125 -250 -132 -8
-6 -37 -23 -63 -36 -27 -14 -56 -30 -65 -35 -10 -6 -48 -28 -87 -50 -38 -22
-79 -45 -90 -52 -11 -7 -27 -16 -35 -20 -19 -9 -260 -149 -280 -163 -8 -6 -22
-13 -30 -17 -8 -4 -59 -33 -113 -65 -54 -32 -101 -58 -103 -58 -2 0 -71 -40
-152 -88 -81 -48 -167 -98 -192 -111 -25 -12 -63 -33 -85 -46 -22 -13 -45 -24
-52 -25 -12 0 -91 36 -373 172 -85 42 -186 90 -225 108 -38 18 -113 53 -165
77 -52 25 -129 61 -170 80 -167 78 -409 199 -478 240 -41 24 -75 43 -78 43 -2
0 -57 32 -121 71 -65 39 -127 75 -138 80 -11 5 -33 18 -50 29 -16 11 -40 24
-52 30 -13 5 -23 14 -23 19 0 5 -12 12 -26 15 -21 6 -24 10 -15 19 9 9 16 9
29 0 9 -7 42 -24 72 -39 112 -54 477 -235 520 -259 86 -46 194 -93 206 -88 43
16 90 335 72 482 -31 262 -140 488 -315 658 -165 158 -319 238 -558 289 -115
24 -309 10 -430 -32 -23 -8 -46 -14 -53 -14 -12 0 -140 -60 -177 -83 -64 -39
-187 -137 -228 -181 -69 -73 -182 -243 -200 -301 -3 -11 -15 -47 -27 -80 -116
-333 -60 -694 150 -973 78 -103 111 -136 205 -208 89 -68 148 -102 227 -134
161 -66 230 -80 383 -80 249 0 459 74 655 231 8 7 47 44 87 82 l72 70 43 -29
c24 -16 77 -53 118 -84 42 -30 83 -59 92 -65 17 -10 130 -90 282 -197 45 -32
128 -90 186 -129 58 -39 134 -93 170 -119 184 -136 339 -240 357 -240 9 0 58
30 111 68 121 85 179 126 268 188 39 27 97 68 130 92 73 53 262 186 369 260
132 91 217 150 280 196 33 23 85 60 116 82 31 21 94 66 140 98 46 33 107 75
134 95 28 19 88 62 135 95 140 99 197 136 208 136 6 0 38 -39 71 -87 85 -124
151 -203 261 -313 87 -87 217 -199 260 -225 10 -5 69 -41 131 -79 156 -94 251
-139 414 -193 227 -76 533 -113 773 -93 221 17 370 50 581 125 78 28 287 132
347 172 33 22 82 55 109 73 69 46 226 183 311 272 247 256 432 611 508 973 56
265 53 619 -5 850 -56 221 -127 409 -206 543 -24 41 -43 75 -43 77 0 2 -14 26
-32 52 -157 236 -376 452 -614 606 -77 50 -266 147 -335 172 -182 66 -321 103
-490 130 -133 21 -441 18 -569 -5z"/>
<path d="M12035 7675 c-93 -16 -137 -37 -184 -86 -38 -38 -71 -110 -71 -153 0
-43 22 -98 52 -132 36 -41 102 -73 203 -98 220 -55 259 -68 281 -100 31 -45 9
-108 -50 -138 -35 -18 -58 -21 -156 -20 -105 0 -122 3 -190 31 -41 17 -80 31
-87 31 -13 0 -53 -64 -53 -86 0 -35 142 -88 270 -99 165 -14 317 24 387 97 40
42 66 118 57 167 -25 131 -96 178 -359 237 -113 25 -172 55 -180 94 -18 82 26
124 145 138 76 9 207 -5 248 -27 36 -19 60 -13 77 19 26 51 20 69 -32 91 -57
25 -180 49 -243 47 -25 0 -76 -6 -115 -13z"/>
<path d="M3895 7657 c-3 -6 -4 -194 -3 -417 l3 -405 63 -3 c38 -2 69 2 78 9
10 8 14 38 14 115 0 126 -2 124 142 124 106 0 220 17 273 41 89 40 135 100
155 201 31 155 -40 273 -195 327 -54 19 -82 21 -292 21 -178 0 -235 -3 -238
-13z m489 -130 c63 -35 80 -66 80 -145 0 -139 -68 -182 -286 -182 -96 0 -108
2 -118 19 -5 11 -10 85 -10 170 0 132 2 151 18 161 11 7 60 9 147 5 108 -5
136 -10 169 -28z"/>
<path d="M5007 7663 c-4 -3 -7 -187 -7 -408 0 -329 3 -405 14 -414 9 -8 104
-11 327 -9 l314 3 0 55 0 55 -240 5 -240 5 -3 114 c-2 85 1 117 10 123 7 4
101 8 209 8 217 0 209 -3 209 65 0 19 -5 37 -12 41 -7 4 -96 7 -198 5 -144 -2
-189 1 -204 11 -16 12 -18 28 -17 117 0 56 3 106 6 111 4 6 99 10 228 10 122
0 228 4 236 9 8 5 15 27 15 53 l1 43 -321 3 c-176 1 -323 -1 -327 -5z"/>
<path d="M6057 7663 c-12 -11 -8 -792 3 -814 8 -14 21 -19 55 -19 79 0 75 -12
75 215 0 206 8 358 19 353 7 -3 169 -173 285 -298 43 -47 119 -127 169 -177
86 -89 92 -93 134 -93 38 0 45 3 53 26 6 16 9 177 8 417 l-3 392 -70 0 -70 0
-5 -269 c-3 -183 -9 -271 -16 -273 -6 -2 -28 16 -49 39 -21 24 -120 129 -220
233 -100 105 -199 209 -220 233 -35 39 -41 42 -89 42 -29 0 -56 -3 -59 -7z"/>
<path d="M7297 7663 c-4 -3 -7 -187 -7 -408 0 -335 2 -405 14 -414 8 -7 37
-11 68 -9 l53 3 3 270 c1 155 6 273 12 279 9 9 77 -59 405 -404 55 -58 114
-116 131 -128 31 -22 98 -30 108 -13 10 16 17 805 8 819 -6 9 -29 12 -73 10
l-64 -3 -3 -268 c-3 -304 -4 -308 -69 -236 -63 70 -99 109 -222 234 -64 66
-148 155 -186 198 l-68 77 -52 0 c-28 0 -55 -3 -58 -7z"/>
<path d="M8447 7663 c-3 -5 48 -87 112 -184 64 -96 140 -212 169 -257 l52 -81
0 -140 c0 -77 3 -146 6 -155 8 -20 126 -23 142 -3 6 6 12 75 14 152 4 164 0
151 111 312 31 46 57 85 57 87 0 2 38 61 85 131 47 71 85 132 85 137 0 5 -33
8 -72 6 l-73 -3 -128 -193 c-112 -170 -129 -191 -146 -183 -10 6 -21 17 -24
26 -4 8 -44 72 -90 142 -46 71 -96 147 -111 171 l-26 42 -80 0 c-43 0 -81 -3
-83 -7z"/>
<path d="M9560 7651 c0 -11 22 -66 49 -123 135 -284 161 -340 161 -344 0 -2
16 -39 36 -81 20 -43 48 -103 61 -133 14 -30 34 -74 45 -97 l20 -43 63 0 c62
0 63 1 84 36 12 19 21 40 21 45 0 6 21 54 46 107 25 54 51 111 59 127 7 17 25
57 40 90 38 83 58 130 91 204 16 35 45 98 65 140 20 42 33 80 29 84 -13 14
-132 3 -141 -13 -5 -8 -32 -64 -60 -125 -28 -60 -62 -133 -75 -161 -13 -28
-24 -54 -24 -57 0 -4 -20 -49 -44 -99 -23 -51 -46 -103 -50 -115 -6 -18 -34
-39 -41 -31 -2 2 -28 64 -60 138 -31 74 -60 140 -64 145 -4 6 -22 46 -40 90
-18 44 -44 103 -57 132 -13 29 -28 63 -34 77 -9 25 -13 26 -95 26 -77 0 -85
-2 -85 -19z"/>
<path d="M10775 7657 c-3 -7 -4 -192 -2 -410 2 -336 5 -400 17 -407 19 -12
620 -13 638 -1 9 5 12 25 10 57 l-3 49 -245 5 -245 5 0 120 0 120 202 3 c194
2 203 3 214 23 13 25 3 89 -14 89 -7 1 -95 1 -197 0 -102 0 -191 4 -198 8 -9
6 -12 38 -10 123 l3 114 232 3 c222 2 233 3 243 23 6 11 10 34 8 52 l-3 32
-323 3 c-256 2 -324 0 -327 -11z"/>
<path d="M12788 7659 c-2 -7 -1 -30 2 -53 l5 -41 142 -5 c79 -3 147 -10 153
-16 6 -6 11 -144 12 -359 l3 -350 64 -3 c35 -2 68 1 73 6 5 5 10 163 10 351 1
187 5 347 10 354 5 8 49 13 148 15 134 3 140 4 145 25 5 25 8 56 6 75 -1 17
-767 18 -773 1z"/>
</g>
</svg>
